<svg xmlns="http://www.w3.org/2000/svg" width="18.542" height="18.03" viewBox="0 0 18.542 18.03">
  <g id="Сгруппировать_144" data-name="Сгруппировать 144" transform="translate(0 0)">
    <path id="Контур_28" data-name="Контур 28" d="M351.278,221.788h3.743v12.043h-3.743Zm1.873-5.986a2.17,2.17,0,1,1-2.171,2.169,2.171,2.171,0,0,1,2.171-2.169" transform="translate(-350.98 -215.802)"/>
    <path id="Контур_29" data-name="Контур 29" d="M374.876,237.371h3.59v1.646h.05a3.933,3.933,0,0,1,3.542-1.945c3.79,0,4.49,2.495,4.49,5.737v6.606h-3.74v-5.857c0-1.4-.026-3.193-1.945-3.193-1.948,0-2.246,1.521-2.246,3.092v5.958h-3.74Z" transform="translate(-368.006 -231.385)"/>
  </g>
</svg>
